<svg width="34" height="35" viewBox="0 0 34 35" fill="none" xmlns="http://www.w3.org/2000/svg">
<path d="M0.538086 14.9321C0.556117 14.909 0.589595 14.8703 0.655273 14.8198C0.816574 14.696 1.08698 14.5538 1.48535 14.4058C2.2768 14.1117 3.45226 13.8379 4.94043 13.604C7.90856 13.1376 12.0279 12.8462 16.5908 12.8462C21.1538 12.8462 25.2731 13.1376 28.2412 13.604C29.7294 13.8379 30.9048 14.1117 31.6963 14.4058C32.0947 14.5538 32.3651 14.696 32.5264 14.8198C32.592 14.8702 32.6255 14.909 32.6436 14.9321C32.6253 14.9553 32.5912 14.9927 32.5264 15.0425C32.3651 15.1663 32.0948 15.3085 31.6963 15.4565C30.9048 15.7506 29.7294 16.0254 28.2412 16.2593C25.2731 16.7257 21.1537 17.0161 16.5908 17.0161C12.0279 17.0161 7.90856 16.7257 4.94043 16.2593C3.45225 16.0254 2.2768 15.7506 1.48535 15.4565C1.08686 15.3085 0.816518 15.1663 0.655273 15.0425C0.59041 14.9927 0.556305 14.9553 0.538086 14.9321Z" stroke="#063A5C" stroke-width="1.04464"/>
<line x1="16.0656" y1="14.2207" x2="16.0656" y2="-3.52631e-05" stroke="#063A5C" stroke-width="1.04464"/>
<line x1="16.0656" y1="34.6025" x2="16.0656" y2="20.3818" stroke="#063A5C" stroke-width="1.04464"/>
<path d="M0.538086 17.7759C0.556117 17.7527 0.589595 17.714 0.655273 17.6636C0.816574 17.5398 1.08698 17.3975 1.48535 17.2495C2.2768 16.9555 3.45226 16.6816 4.94043 16.4478C7.90856 15.9813 12.0279 15.6899 16.5908 15.6899C21.1538 15.6899 25.2731 15.9813 28.2412 16.4478C29.7294 16.6816 30.9048 16.9555 31.6963 17.2495C32.0947 17.3975 32.3651 17.5398 32.5264 17.6636C32.592 17.714 32.6255 17.7527 32.6436 17.7759C32.6253 17.7991 32.5912 17.8364 32.5264 17.8862C32.3651 18.0101 32.0948 18.1522 31.6963 18.3003C30.9048 18.5943 29.7294 18.8692 28.2412 19.103C25.2731 19.5694 21.1537 19.8599 16.5908 19.8599C12.0279 19.8599 7.90856 19.5694 4.94043 19.103C3.45225 18.8692 2.2768 18.5943 1.48535 18.3003C1.08686 18.1522 0.816518 18.0101 0.655273 17.8862C0.59041 17.8364 0.556305 17.7991 0.538086 17.7759Z" stroke="#063A5C" stroke-width="1.04464"/>
</svg>
