<svg width="33" height="37" viewBox="0 0 33 37" fill="none" xmlns="http://www.w3.org/2000/svg">
<circle cx="28.6873" cy="15.534" r="3.949" fill="#063A5C"/>
<path d="M2.89551 0.527344C2.91943 0.539676 2.97719 0.577479 3.06543 0.692383C3.20806 0.878109 3.36785 1.18489 3.5332 1.62988C3.86179 2.5143 4.16775 3.82413 4.42773 5.47852C4.94642 8.77924 5.26953 13.3582 5.26953 18.4287C5.26953 23.4992 4.94642 28.0782 4.42773 31.3789C4.16776 33.0333 3.86178 34.3431 3.5332 35.2275C3.36786 35.6725 3.20805 35.9793 3.06543 36.165C2.97766 36.2793 2.91964 36.3166 2.89551 36.3291C2.871 36.3162 2.8135 36.2782 2.72656 36.165C2.58395 35.9793 2.42413 35.6725 2.25879 35.2275C1.93021 34.3431 1.62424 33.0332 1.36426 31.3789C0.845574 28.0782 0.522463 23.4992 0.522461 18.4287C0.522461 13.3582 0.845573 8.77924 1.36426 5.47852C1.62424 3.82414 1.93021 2.51429 2.25879 1.62988C2.42413 1.18491 2.58394 0.878103 2.72656 0.692383C2.81396 0.578593 2.8712 0.540049 2.89551 0.527344Z" stroke="#063A5C" stroke-width="1.04464"/>
<line x1="2.81227" y1="36.4533" x2="28.6124" y2="15.3919" stroke="#063A5C" stroke-width="1.04464"/>
</svg>
