<svg width="32" height="30" viewBox="0 0 32 30" fill="none" xmlns="http://www.w3.org/2000/svg">
<path d="M1.12988 13.0825C1.14792 13.0626 1.17742 13.035 1.22363 12.9995C1.37321 12.8847 1.62661 12.7507 2.00293 12.6108C2.74982 12.3334 3.86036 12.0743 5.26855 11.853C8.07727 11.4117 11.9763 11.1363 16.2959 11.1362C20.6157 11.1362 24.5154 11.4116 27.3242 11.853C28.7324 12.0743 29.843 12.3334 30.5898 12.6108C30.9662 12.7507 31.2196 12.8847 31.3691 12.9995C31.415 13.0347 31.4438 13.0626 31.4619 13.0825C31.4438 13.1024 31.415 13.1303 31.3691 13.1655C31.2196 13.2804 30.9661 13.4144 30.5898 13.5542C29.843 13.8316 28.7324 14.0907 27.3242 14.312C24.5154 14.7534 20.6157 15.0288 16.2959 15.0288C11.9763 15.0288 8.07727 14.7534 5.26855 14.312C3.86038 14.0907 2.74982 13.8316 2.00293 13.5542C1.62664 13.4144 1.37321 13.2804 1.22363 13.1655C1.17745 13.1301 1.14792 13.1025 1.12988 13.0825Z" stroke="#063A5C" stroke-width="1.04464"/>
<path d="M1.12988 26.9976C1.14792 26.9776 1.17742 26.95 1.22363 26.9146C1.37321 26.7997 1.62661 26.6657 2.00293 26.5259C2.74982 26.2485 3.86036 25.9894 5.26855 25.7681C8.07727 25.3267 11.9763 25.0513 16.2959 25.0513C20.6157 25.0513 24.5154 25.3267 27.3242 25.7681C28.7324 25.9894 29.843 26.2485 30.5898 26.5259C30.9662 26.6657 31.2196 26.7997 31.3691 26.9145C31.415 26.9498 31.4438 26.9776 31.4619 26.9976C31.4438 27.0175 31.415 27.0454 31.3691 27.0806C31.2196 27.1954 30.9661 27.3294 30.5898 27.4692C29.843 27.7467 28.7324 28.0058 27.3242 28.227C24.5154 28.6684 20.6157 28.9438 16.2959 28.9438C11.9763 28.9438 8.07727 28.6684 5.26855 28.2271C3.86038 28.0058 2.74982 27.7467 2.00293 27.4692C1.62664 27.3294 1.37321 27.1954 1.22363 27.0806C1.17745 27.0451 1.14792 27.0175 1.12988 26.9976Z" stroke="#063A5C" stroke-width="1.04464"/>
<line x1="15.9432" y1="12.4891" x2="28.0626" y2="0.369577" stroke="#063A5C" stroke-width="1.04464"/>
<line x1="31.4835" y1="26.7729" x2="31.4835" y2="13.3069" stroke="#063A5C" stroke-width="1.04464"/>
<line x1="0.5226" y1="26.7729" x2="0.5226" y2="13.3069" stroke="#063A5C" stroke-width="1.04464"/>
</svg>
